<svg width="32" height="32" viewBox="0 0 32 32" fill="none" xmlns="http://www.w3.org/2000/svg">
<rect width="32" height="32" rx="2" fill="#187BF0"/>
<path d="M12.2 22C11.7733 22 11.384 21.8987 11.032 21.696C10.6907 21.4827 10.4133 21.2053 10.2 20.864C9.99733 20.512 9.896 20.1227 9.896 19.696V12.784C9.896 12.3573 9.99733 11.9733 10.2 11.632C10.4133 11.28 10.6907 11.0027 11.032 10.8C11.384 10.5867 11.7733 10.48 12.2 10.48H21.384V12.8H12.744C12.5733 12.8 12.44 12.848 12.344 12.944C12.248 13.0293 12.2 13.1627 12.2 13.344V19.136C12.2 19.3067 12.248 19.44 12.344 19.536C12.44 19.632 12.5733 19.68 12.744 19.68H21.384V22H12.2Z" fill="white"/>
</svg>
